<svg width="200" height="180" viewBox="0 0 200 180" fill="none" xmlns="http://www.w3.org/2000/svg">
<path d="M0 46.8917C0 64.925 6.58333 81.3333 18.0583 92.8083C21.3333 96.0833 24.6083 97.725 27.8917 101H29.5167C31.1583 101 31.15 99.3667 31.15 99.3667C27.875 92.8083 26.25 84.6167 26.25 76.4167C26.25 58.3833 34.4333 40.3417 45.9167 28.8667V2.65C45.9167 1.00833 44.275 1.01667 44.275 1.01667H19.6917C6.575 14.1333 0 28.8667 0 46.8917ZM21.325 151.808C40.9917 169.842 65.575 179.667 95.0833 179.667C154.1 179.667 200 132.15 200 74.7833C200 46.9167 188.517 20.6833 170.483 2.65H168.85C168.85 1.00833 167.217 2.65 167.217 2.65C172.133 15.7667 175.408 28.875 175.408 43.6333C175.408 104.283 126.225 155.075 63.9333 155.075C49.1833 155.075 36.0667 151.8 22.9583 146.883C21.3167 146.883 21.325 148.542 21.325 150.175V151.808ZM70.4917 51.825C70.4917 56.7417 73.7833 61.6417 77.0583 64.9167H80.325C109.825 74.75 119.675 63.3083 119.675 50.1917V32.1333C119.675 30.5 121.308 30.5 121.308 30.5H127.867C129.508 30.5 129.5 28.8667 129.5 28.8667C127.867 19.0333 122.967 9.21667 116.408 1.01667H96.7167C96.7167 -0.625 95.0833 1.01667 95.0833 2.65V27.2333C95.0833 40.35 85.25 50.1833 72.1333 51.825C72.1333 50.1833 70.5 51.825 70.5 51.825H70.4917Z" fill="black"/>
</svg>
